ply
format ascii 1.0
comment VCGLIB generated
element vertex 285
property float x
property float y
property float z
element face 566
property list uchar int vertex_indices
end_header
-0.7341134 -0.3535678 0.7219818 
-0.3529392 -0.7507383 0.6544025 
0.772553 0.2067125 -0.8314066 
0.2089073 -0.5512805 -1.446152 
-0.3231463 0.1852551 -1.785328 
0.1059125 -0.3556948 -1.77546 
-0.7142388 0.5351405 -0.2912227 
0.4199249 -0.7808993 -0.2860063 
-0.01878932 0.8725883 -0.2008437 
-0.4097092 -0.02047438 -1.7439 
0.8764232 -0.02796775 -0.2334466 
-0.7671043 -0.165311 0.8352314 
0.740835 0.2119438 0.9518001 
-0.7726849 0.2073761 -0.8187519 
0.5784884 -0.5860614 -0.7221212 
-0.03093046 -0.553581 -1.506077 
-0.01465447 -0.2793829 -1.876093 
0.3334673 -0.1396615 1.772763 
-0.8051512 -0.2380067 0.6054433 
-0.1278502 0.3727199 1.763978 
0.8017902 0.2372286 0.6093225 
0.289488 0.7908024 0.6374763 
-0.171421 -0.7804094 0.7798584 
0.3376789 0.4880718 1.448191 
0.5306602 0.306496 1.410714 
0.2091362 0.5575048 1.439359 
-0.3441575 -0.1325108 1.750655 
-0.02337721 0.671221 1.22587 
0.6707414 -0.02380141 1.225306 
-0.4091709 -0.7898946 0.2036735 
-0.778597 -0.4249549 0.3237815 
-0.02524309 0.5601193 1.498695 
-0.7005392 -0.234097 -1.094982 
-0.5576496 -0.02474358 -1.505113 
-0.6481414 -0.3892721 -1.045787 
0.2369671 0.2136461 -1.870924 
0.1768302 0.3170582 -1.804276 
-0.5530668 -0.2098436 -1.455165 
-0.6798705 0.3531307 -0.9901322 
-0.2546129 -0.5640511 -1.408916 
-0.3247454 -0.1868719 -1.791368 
-0.146705 -0.3451923 -1.76336 
-0.4365736 -0.3928469 -1.478478 
0.2139446 -0.7750104 -0.803732 
-0.1784061 0.7854217 -0.7395539 
-0.5682695 0.6888493 -0.3395138 
0.6351596 -0.6321407 -0.1848922 
0.3724784 0.3686309 -1.564085 
-0.4171425 0.7754424 -0.3226997 
-0.718637 -0.5143937 -0.4100063 
-0.5143275 -0.6833534 -0.545718 
0.6871912 0.3377627 -1.010918 
-0.9413882 -0.009093414 -0.2386979 
-0.00550699 -0.9423999 -0.2398732 
-0.03272002 -0.8641403 -0.4533369 
-0.5285155 0.3102998 -1.410438 
-0.1648583 0.1574831 -1.945821 
-0.2474425 -0.6973495 -1.093897 
0.1667428 -0.1101511 -1.949535 
0.6302981 0.6238364 -0.367373 
-0.2244025 -0.7187172 1.024969 
-0.5796223 -0.6804832 0.3430792 
0.2030394 0.7659503 0.8564606 
0.6837939 0.3368022 1.012096 
0.3469615 0.677713 1.008525 
0.7650968 0.4121274 -0.4147327 
-0.1928491 -0.8742617 -0.2808794 
-0.007628596 -0.9191417 0.02488183 
-0.9191656 -0.006727194 0.02166408 
0.369305 -0.3716066 -1.563683 
0.3582829 0.7713372 -0.5568568 
-0.3675368 0.3754078 -1.568789 
-0.8645704 -0.2186406 -0.2465815 
-0.8624818 0.2215042 0.02552954 
0.2214388 -0.8625018 0.02460269 
-0.2182349 0.8463123 -0.2743353 
0.8421934 -0.02696193 -0.4918465 
-0.03289313 0.8418853 -0.4889744 
0.1965298 -0.8668574 0.2987027 
-0.8611038 0.2185816 0.246798 
-0.2214141 -0.8661127 0.02537495 
-0.866302 -0.2214821 0.02472848 
0.2143429 0.8437805 -0.3010915 
0.8459064 0.2150221 0.2787282 
-0.4219945 -0.778248 -0.326381 
-0.7900627 -0.4058478 -0.1995153 
0.514551 0.6828013 0.5458202 
0.6829234 0.5134566 0.5446006 
-0.004850488 0.3027255 -1.887972 
0.04001983 0.4111826 -1.737734 
-0.5358772 -0.7147623 -0.287909 
-0.7165737 -0.537626 0.2782118 
0.197488 0.03068995 -1.96973 
-0.5868005 0.5795121 0.7261667 
0.5479493 0.2074416 1.455725 
-0.3693563 0.3714696 1.563313 
0.3918467 0.6262456 1.099434 
-0.5709248 0.5166313 1.014622 
0.5094778 -0.5599664 1.054441 
0.02995267 -0.0015998 2.0716 
0.5838511 -0.5815342 0.7207519 
-0.6861686 0.3380215 1.014248 
0.3739344 -0.641355 1.091973 
0.7727822 -0.3413467 0.5899408 
0.683036 -0.514407 0.5452408 
-0.4701121 0.7376475 0.4639772 
0.7798182 -0.418374 0.2943871 
-0.3019346 -0.8016043 0.5279774 
0.5712985 0.4979939 1.045186 
-0.02336762 -0.6703752 1.225056 
-0.7132387 -0.03546356 1.110295 
0.2136639 -0.6467437 1.243967 
-0.646841 0.2137754 1.239383 
0.4384113 0.3965958 -1.46776 
-0.7769361 0.4227974 -0.3237512 
0.200523 -0.8666807 -0.2638761 
-0.8462517 0.2031007 -0.4075437 
0.8113572 -0.2415039 -0.5383319 
-0.625402 -0.6388982 -0.3225989 
-0.2007246 -0.7964815 -0.677342 
-0.7798099 -0.1710726 -0.7824301 
0.2122623 0.7413496 -0.9509169 
0.5378475 -0.000756579 1.539153 
-0.1041906 0.1694007 1.948633 
-0.2535363 0.2568822 1.804579 
0.248276 -0.2124896 1.819938 
0.7111312 0.5359282 0.3209169 
0.6346099 0.6339182 0.1958182 
0.5499708 0.7030696 0.3547844 
0.5039695 0.5684816 -1.046371 
0.8432133 0.2121854 -0.2796748 
-0.5035794 -0.566865 -1.040347 
-0.8034437 -0.301026 -0.5155296 
0.7804484 0.405856 -0.2168098 
-0.4057958 0.6406251 1.046464 
-0.3403437 0.6851524 1.011781 
-0.2103767 0.5490129 1.461478 
-0.3942639 0.44332 1.465166 
0.5196767 -0.3184992 1.414778 
0.5543531 -0.206274 1.453758 
-0.5780622 -0.5795436 0.7425605 
-0.5520675 0.207628 1.443273 
-0.5117933 0.3274528 1.41627 
0.2472897 -0.5602856 1.41766 
0.5155375 -0.7175943 -0.410902 
0.8507074 -0.2124398 -0.2163704 
-0.8619562 0.2183213 -0.2434867 
-0.6834021 0.5140565 -0.5453838 
-0.6710966 -0.02338686 -1.225794 
0.3425251 -0.7713543 -0.5982351 
-0.03586117 -0.7139581 -1.10935 
-0.7735487 0.342708 -0.5962079 
0.6749902 -0.5391896 -0.5104119 
0.7504637 -0.4769044 -0.3318952 
-0.08363652 0.4040896 -1.749675 
0.3981602 -0.4367857 -1.46805 
-0.3929373 0.4407562 -1.473511 
-0.008225008 0.1740267 -1.980368 
-0.7639248 0.01975479 -0.9376668 
0.5680709 -0.5036478 -1.044679 
-0.5660908 0.5030731 -1.046826 
-0.2374988 0.7012261 -1.08701 
0.7481484 -0.1614432 -0.9367529 
-0.1543469 -0.1433971 -1.924555 
0.7656695 0.01907414 -0.9295502 
0.03080073 0.7708691 -0.910349 
0.06644331 -0.7833562 -0.8448873 
0.3759101 -0.6556627 -1.051229 
-0.3411605 0.772302 -0.5901134 
-0.3166627 -0.2889709 -1.71225 
-0.5139768 0.6824958 -0.5453141 
-0.3533879 -0.7347475 -0.7167988 
-0.7501584 -0.3528156 -0.6559139 
-0.3735147 0.6530641 -1.054646 
0.7366374 -0.3577305 -0.6969746 
-0.5768898 0.5861546 -0.7253096 
-0.01013404 0.03358623 -2.076151 
-0.1978063 0.03763729 -1.966667 
0.05555954 -0.107548 -1.989732 
-0.1794779 0.3303907 -1.801575 
-0.5549672 0.2103489 -1.444296 
0.4142198 -0.4108389 1.477335 
0.6469469 0.2168982 1.241808 
0.2130807 0.6481355 1.241529 
0.5323801 -0.3061488 -1.41091 
0.6122688 -0.02203532 -1.381881 
-0.02384775 0.6715316 -1.22593 
0.6825688 0.5145022 -0.5461944 
0.6094006 -0.2096334 -1.345498 
0.4336618 -0.006152659 -1.703096 
-0.02476057 0.5615561 -1.500271 
0.1824569 0.1910317 1.915348 
-0.239894 -0.2439293 1.781758 
0.5145493 -0.6841167 0.5454351 
-0.6754711 0.5395375 0.5137395 
-0.7723477 0.355686 0.5655295 
0.2170849 0.2869554 1.814507 
0.2177004 0.647461 -1.241034 
0.6489731 0.2103626 -1.2386 
0.6378897 0.4049935 -1.054184 
0.308512 0.5298803 -1.4103 
-0.8675664 -0.02059564 -0.4355302 
0.140764 -0.3371174 1.776608 
-0.3086566 0.1796097 1.791381 
0.8426165 -0.03278761 0.4892065 
-0.02675559 0.8429598 0.4922015 
0.7849798 -0.1779916 0.74288 
0.3110446 0.1890525 1.795799 
0.2396627 -0.8058807 0.6091724 
0.8526981 -0.2089598 0.2668621 
-0.2296099 0.8430734 0.3468992 
-0.8405538 0.2271031 0.3884486 
0.04087621 0.4039031 1.732932 
-0.5917406 0.676603 0.2728277 
-0.7889128 0.4102807 0.2016988 
0.4267555 -0.7769972 0.3202842 
-0.7127923 0.5356467 0.3170452 
0.5381103 -0.7160532 0.2785089 
0.4122742 0.4103769 1.484226 
0.5771652 0.591839 0.7053918 
0.4206178 0.7739677 0.3201555 
0.7693592 0.4317318 0.3293182 
-0.5479233 -0.5495927 0.9935255 
-0.7601078 0.2027708 0.8936781 
0.699551 -0.2380103 1.09162 
-0.1622474 0.7480344 0.9417568 
0.20364 -0.7654577 0.8620157 
0.5770864 -0.5080931 1.009583 
-0.2117491 0.6496794 1.240655 
-0.5138985 -0.6829907 0.5447074 
-0.6839191 -0.5147319 0.5457578 
-0.104283 -0.09402454 1.944794 
-0.2192821 -0.8641075 0.2461958 
-0.8746974 -0.1895046 0.2806935 
0.2123524 0.8456755 0.2736389 
-0.02184605 -0.8310065 0.6038633 
-0.81473 -0.001465244 0.6852319 
0.4140187 -0.1250432 -1.70595 
-0.2088194 0.5615016 -1.444684 
0.5915201 0.5772829 -0.7123687 
0.3514133 0.6758134 -1.012789 
0.715094 -0.5360964 0.2817357 
-0.4138447 0.7839767 0.2115408 
-0.2558397 0.2651914 -1.810567 
0.2755138 -0.2229513 -1.819928 
0.7659869 0.3520535 -0.597171 
-0.5645878 -0.2040434 1.428333 
0.4614861 0.7600131 -0.2321621 
-0.4294693 -0.4081528 1.462025 
-0.5531757 -0.03265654 1.502891 
-0.1234353 -0.3497067 1.753048 
-0.03033663 -0.5516109 1.507658 
-0.01000765 -0.9372155 0.2358876 
-0.9380056 -0.006254551 0.2371524 
-0.6820622 0.2257929 -1.148586 
0.7608362 0.3560509 0.6123747 
-0.6585706 -0.3825892 1.029837 
-0.3386897 -0.6835324 1.011697 
-0.02297415 -0.8827921 0.3808013 
-0.8839797 -0.0207042 0.3805966 
-0.3578764 0.7378541 0.6987553 
0.6766376 -0.3516454 0.992862 
-0.3213628 -0.5165356 1.413874 
0.01967689 -0.7645988 0.9361819 
-0.5805786 -0.5776535 -0.7372257 
0.02397386 0.2012312 1.962076 
-0.2980707 0.006885534 1.85466 
0.01938467 -0.3146535 1.840015 
0.3562572 -0.7628035 0.6151962 
0.6292565 -0.6302466 0.3561237 
-0.6897423 -0.2281077 1.122925 
-0.2016787 -0.600267 1.364413 
0.8729143 -0.01955147 0.2170198 
0.5585661 0.2106052 -1.436679 
0.2098425 0.5450869 -1.459035 
0.7704981 0.03103292 0.911321 
0.01853514 0.7658046 0.9296346 
0.3072177 0.0059003 1.850844 
-0.02755121 0.8777233 0.2350143 
0.7110016 0.5334896 -0.3008825 
0.5130712 0.6952304 -0.5015709 
0.682273 -0.3364232 -1.012962 
0.2336751 -0.6928868 -1.116208 
0.04422678 -0.1433589 1.949549 
-0.1098766 0.05835743 1.982406 
3 111 102 143 
3 5 3 15 
3 72 85 81 
3 41 39 169 
3 3 5 69 
3 167 282 3 
3 18 0 11 
3 67 80 66 
3 31 19 212 
3 25 27 31 
3 67 74 78 
3 128 126 127 
3 51 2 198 
3 204 206 209 
3 11 0 256 
3 157 35 92 
3 12 63 182 
3 84 66 80 
3 214 6 114 
3 68 233 253 
3 268 193 100 
3 84 90 50 
3 101 97 93 
3 179 71 238 
3 22 235 263 
3 5 58 244 
3 136 19 31 
3 125 181 17 
3 162 76 117 
3 186 161 165 
3 67 53 74 
3 239 129 240 
3 249 266 141 
3 265 196 212 
3 41 40 163 
3 214 114 73 
3 12 28 275 
3 19 123 265 
3 105 210 242 
3 53 54 115 
3 157 176 177 
3 74 115 7 
3 35 36 47 
3 76 2 130 
3 100 104 103 
3 9 37 33 
3 84 80 29 
3 261 138 227 
3 160 173 156 
3 18 233 30 
3 119 84 171 
3 181 202 143 
3 85 132 49 
3 144 152 46 
3 67 78 252 
3 20 12 275 
3 111 226 102 
3 182 122 28 
3 89 36 88 
3 198 2 164 
3 80 252 232 
3 158 148 32 
3 80 232 29 
3 54 119 166 
3 86 219 87 
3 66 84 119 
3 13 201 116 
3 4 71 243 
3 136 134 137 
3 114 116 146 
3 101 142 97 
3 130 2 245 
3 157 56 179 
3 90 29 61 
3 74 53 115 
3 94 182 24 
3 219 64 96 
3 152 153 46 
3 54 43 115 
3 143 202 251 
3 6 213 45 
3 84 29 90 
3 233 81 30 
3 61 91 118 
3 197 274 190 
3 114 6 147 
3 266 26 231 
3 131 34 42 
3 93 97 134 
3 57 39 150 
3 186 165 121 
3 204 209 272 
3 167 14 149 
3 148 33 32 
3 140 229 1 
3 107 229 61 
3 54 166 43 
3 202 125 283 
3 198 164 185 
3 37 42 34 
3 175 38 151 
3 20 255 12 
3 125 99 283 
3 126 87 221 
3 200 113 47 
3 44 75 77 
3 269 46 241 
3 207 218 196 
3 133 279 221 
3 126 221 279 
3 131 171 264 
3 69 237 184 
3 268 208 215 
3 105 213 194 
3 90 61 118 
3 224 275 28 
3 270 246 110 
3 45 213 242 
3 280 59 187 
3 194 195 93 
3 171 84 50 
3 125 277 99 
3 266 284 203 
3 248 192 26 
3 71 55 156 
3 16 178 58 
3 278 75 210 
3 35 189 92 
3 25 196 218 
3 119 171 57 
3 71 180 55 
3 214 216 6 
3 180 9 33 
3 49 91 85 
3 107 22 1 
3 133 221 83 
3 95 142 141 
3 265 191 196 
3 86 220 21 
3 268 215 193 
3 169 39 42 
3 207 277 122 
3 40 9 177 
3 140 257 222 
3 49 172 264 
3 220 234 21 
3 78 258 252 
3 150 15 282 
3 238 156 173 
3 10 145 76 
3 4 180 71 
3 268 102 226 
3 137 142 95 
3 45 48 170 
3 255 221 87 
3 186 238 161 
3 72 201 132 
3 10 130 272 
3 73 114 146 
3 25 212 196 
3 214 211 195 
3 40 177 163 
3 100 103 261 
3 227 138 98 
3 52 68 146 
3 109 251 271 
3 70 239 240 
3 193 269 104 
3 140 222 0 
3 162 164 76 
3 248 256 222 
3 105 260 210 
3 39 15 150 
3 22 263 60 
3 29 232 107 
3 152 14 174 
3 25 218 23 
3 136 137 95 
3 49 264 50 
3 52 146 116 
3 257 1 60 
3 102 98 143 
3 183 96 64 
3 153 241 46 
3 134 228 135 
3 115 149 7 
3 63 219 108 
3 0 230 140 
3 69 184 155 
3 111 109 263 
3 246 256 248 
3 179 238 154 
3 25 31 212 
3 70 121 82 
3 13 116 151 
3 148 180 33 
3 119 57 150 
3 259 211 79 
3 114 151 116 
3 167 155 159 
3 67 66 53 
3 128 86 87 
3 89 88 154 
3 106 241 153 
3 11 110 236 
3 217 144 46 
3 181 138 139 
3 188 281 184 
3 110 112 223 
3 107 1 229 
3 0 30 230 
3 248 222 262 
3 250 251 267 
3 77 8 82 
3 76 164 2 
3 73 146 68 
3 52 72 81 
3 282 167 43 
3 51 239 245 
3 5 41 16 
3 128 87 126 
3 89 190 274 
3 234 220 82 
3 24 108 218 
3 119 150 166 
3 51 198 199 
3 66 119 54 
3 56 243 179 
3 232 252 258 
3 278 234 8 
3 35 47 273 
3 101 223 112 
3 40 37 9 
3 91 230 30 
3 5 15 41 
3 76 145 117 
3 167 159 14 
3 53 66 54 
3 257 60 271 
3 138 224 139 
3 88 36 157 
3 144 7 149 
3 91 61 230 
3 70 240 121 
3 182 63 24 
3 181 98 138 
3 158 254 148 
3 168 170 48 
3 107 235 22 
3 132 172 49 
3 32 172 120 
3 217 7 144 
3 97 142 137 
3 157 36 35 
3 175 170 168 
3 189 273 185 
3 51 245 2 
3 205 210 225 
3 49 118 91 
3 207 122 94 
3 191 277 207 
3 261 224 138 
3 20 275 204 
3 205 278 210 
3 71 156 238 
3 257 271 262 
3 86 21 219 
3 67 252 80 
3 107 232 258 
3 164 162 185 
3 8 75 278 
3 202 283 267 
3 107 258 235 
3 197 200 274 
3 160 55 38 
3 105 93 260 
3 57 171 131 
3 237 188 184 
3 261 103 206 
3 205 225 276 
3 128 127 247 
3 32 34 172 
3 27 276 225 
3 85 72 132 
3 280 239 70 
3 118 50 90 
3 141 266 203 
3 198 273 199 
3 200 240 129 
3 261 227 100 
3 250 192 248 
3 140 1 257 
3 177 9 4 
3 73 68 253 
3 160 156 55 
3 207 94 218 
3 223 195 211 
3 267 231 250 
3 218 108 96 
3 148 254 180 
3 217 215 7 
3 41 163 16 
3 3 69 155 
3 180 254 55 
3 250 271 251 
3 63 108 24 
3 205 276 62 
3 249 26 266 
3 235 208 226 
3 216 214 195 
3 253 259 79 
3 28 122 139 
3 235 226 263 
3 270 256 246 
3 17 277 125 
3 5 16 58 
3 202 267 251 
3 171 50 264 
3 175 160 38 
3 113 129 199 
3 103 104 106 
3 185 273 198 
3 143 251 109 
3 169 37 40 
3 22 60 1 
3 215 208 78 
3 204 272 83 
3 78 208 258 
3 100 98 102 
3 258 208 235 
3 123 284 265 
3 282 43 150 
3 145 209 106 
3 162 117 174 
3 219 96 108 
3 51 199 239 
3 115 43 149 
3 167 149 43 
3 266 231 284 
3 158 32 120 
3 15 39 41 
3 279 187 59 
3 94 24 218 
3 177 176 163 
3 173 168 44 
3 74 7 215 
3 92 244 58 
3 196 191 207 
3 17 139 122 
3 74 215 78 
3 111 263 226 
3 49 50 118 
3 183 62 276 
3 88 179 154 
3 140 230 229 
3 73 253 79 
3 5 244 69 
3 132 120 172 
3 241 106 104 
3 157 92 176 
3 239 199 129 
3 254 13 38 
3 134 97 137 
3 130 65 133 
3 88 157 179 
3 6 45 147 
3 125 202 181 
3 189 185 188 
3 69 244 237 
3 107 61 29 
3 250 248 262 
3 82 121 165 
3 15 3 282 
3 254 38 55 
3 246 26 249 
3 143 98 181 
3 273 113 199 
3 93 134 135 
3 28 139 224 
3 18 30 0 
3 38 13 151 
3 253 233 259 
3 56 4 243 
3 112 141 142 
3 126 279 127 
3 281 159 184 
3 193 217 269 
3 105 242 213 
3 144 14 152 
3 234 82 8 
3 110 249 112 
3 246 249 110 
3 166 150 43 
3 101 112 142 
3 249 141 112 
3 224 206 275 
3 18 259 233 
3 114 147 151 
3 175 147 170 
3 229 230 61 
3 176 178 163 
3 250 262 271 
3 109 60 263 
3 30 81 85 
3 19 124 123 
3 109 271 60 
3 4 9 180 
3 18 11 236 
3 193 215 217 
3 267 283 231 
3 241 104 269 
3 52 81 68 
3 65 187 279 
3 152 174 153 
3 132 201 120 
3 68 81 233 
3 100 102 268 
3 117 153 174 
3 99 284 231 
3 236 211 259 
3 206 103 209 
3 187 245 239 
3 75 168 48 
3 191 265 99 
3 30 85 91 
3 16 163 178 
3 0 222 256 
3 165 161 44 
3 268 226 208 
3 25 183 27 
3 179 243 71 
3 281 14 159 
3 144 149 14 
3 275 206 204 
3 197 186 121 
3 264 34 131 
3 186 190 238 
3 130 245 65 
3 39 131 42 
3 265 212 19 
3 105 194 93 
3 11 256 270 
3 12 182 28 
3 217 46 269 
3 158 13 254 
3 39 57 131 
3 94 122 182 
3 101 195 223 
3 222 257 262 
3 65 279 133 
3 111 143 109 
3 63 255 219 
3 188 162 281 
3 183 64 62 
3 175 168 173 
3 70 247 280 
3 145 272 209 
3 194 216 195 
3 272 130 83 
3 56 177 4 
3 89 274 36 
3 169 42 37 
3 33 37 32 
3 158 120 201 
3 165 44 77 
3 128 220 86 
3 99 231 283 
3 20 221 255 
3 27 183 276 
3 167 3 155 
3 135 225 260 
3 82 165 77 
3 100 227 98 
3 135 228 225 
3 193 104 100 
3 65 245 187 
3 174 14 281 
3 10 76 130 
3 264 172 34 
3 99 265 284 
3 175 173 160 
3 154 238 190 
3 93 135 260 
3 242 48 45 
3 159 155 184 
3 242 75 48 
3 214 73 79 
3 185 162 188 
3 12 255 63 
3 145 153 117 
3 32 37 34 
3 246 248 26 
3 41 169 40 
3 250 231 192 
3 223 211 236 
3 181 139 17 
3 224 261 206 
3 174 281 162 
3 106 153 145 
3 209 103 106 
3 26 192 231 
3 52 201 72 
3 18 236 259 
3 11 270 110 
3 236 110 223 
3 17 122 277 
3 92 237 244 
3 75 8 77 
3 237 189 188 
3 123 124 203 
3 10 272 145 
3 95 141 203 
3 92 178 176 
3 92 58 178 
3 205 234 278 
3 189 237 92 
3 47 36 274 
3 200 129 113 
3 158 201 13 
3 52 116 201 
3 157 177 56 
3 23 218 96 
3 197 121 240 
3 123 203 284 
3 191 99 277 
3 133 83 130 
3 35 273 189 
3 19 136 95 
3 20 204 83 
3 214 79 211 
3 59 280 247 
3 95 203 124 
3 113 273 47 
3 128 247 220 
3 6 216 213 
3 20 83 221 
3 175 151 147 
3 101 93 195 
3 21 62 64 
3 19 95 124 
3 44 168 75 
3 255 87 219 
3 213 216 194 
3 247 82 220 
3 45 170 147 
3 197 240 200 
3 89 154 190 
3 200 47 274 
3 23 96 25 
3 280 187 239 
3 59 247 127 
3 279 59 127 
3 161 238 173 
3 136 228 134 
3 27 228 31 
3 31 228 136 
3 197 190 186 
3 25 96 183 
3 173 44 161 
3 260 225 210 
3 27 225 228 
3 21 64 219 
3 205 62 21 
3 242 210 75 
3 21 234 205 
3 70 82 247 
